<svg id="Capa_1" enable-background="new 0 0 512 512" height="512" viewBox="0 0 512 512" width="512" xmlns="http://www.w3.org/2000/svg"><g><path d="m504.613 194.776-6.96-2.628-64.736-112.987.367-7.828c-29.465-28.293-65.684-49.598-106-61.264l-4.95 3.499h-134.106l-3.512-3.499c-40.316 11.665-76.535 32.97-105.999 61.264l1.333 13.709-54.605 101.783-18.058 7.951c-4.815 19.619-7.387 40.12-7.387 61.224s2.572 41.605 7.387 61.224l18.745 8 52.2 101.734.384 13.709c29.464 28.293 65.683 49.599 105.999 61.264l8.406-7.056h120.284l13.879 7.056c40.316-11.665 76.535-32.971 105.999-61.264l-.71-9.325 60.614-111.383 11.425-2.735c4.816-19.619 7.388-40.12 7.388-61.224s-2.572-41.605-7.387-61.224z" fill="#dbedff"/><path d="m236.649 13.567h-48.421l-3.512-3.499c-40.316 11.666-76.535 32.971-105.999 61.265l1.333 13.709-54.605 101.783-18.058 7.951c-4.815 19.619-7.387 40.12-7.387 61.224s2.572 41.605 7.387 61.224l18.745 8 52.2 101.734.384 13.709c29.464 28.293 65.683 49.599 105.999 61.264l8.406-7.056h33.743c-95.832-37.003-163.819-129.99-163.819-238.875 0-112.556 72.645-208.133 173.604-242.433z" fill="#b5dcff"/><g><path d="m256 435.948c-4.267 0-7.727-3.46-7.727-7.727v-89.868c0-4.267 3.46-7.727 7.727-7.727s7.727 3.46 7.727 7.727v89.868c0 4.267-3.459 7.727-7.727 7.727z" fill="#b5dcff"/></g><g><path d="m256 182.638c-4.267 0-7.727-3.46-7.727-7.727v-89.869c0-4.267 3.46-7.727 7.727-7.727s7.727 3.46 7.727 7.727v89.868c0 4.268-3.459 7.728-7.727 7.728z" fill="#b5dcff"/></g><g><path d="m404.594 350.155c-1.311 0-2.64-.334-3.856-1.037l-77.827-44.933c-3.696-2.133-4.962-6.859-2.828-10.555 2.133-3.696 6.859-4.963 10.555-2.828l77.827 44.933c3.696 2.133 4.962 6.859 2.828 10.555-1.432 2.478-4.029 3.865-6.699 3.865z" fill="#b5dcff"/></g><g><path d="m185.22 223.499c-1.311 0-2.64-.334-3.856-1.037l-77.828-44.934c-3.696-2.133-4.962-6.859-2.828-10.555 2.133-3.695 6.859-4.963 10.555-2.828l77.828 44.934c3.696 2.133 4.962 6.859 2.828 10.555-1.431 2.479-4.028 3.865-6.699 3.865z" fill="#b5dcff"/></g><g><path d="m326.78 223.499c-2.67 0-5.268-1.386-6.699-3.865-2.134-3.696-.868-8.422 2.828-10.555l77.828-44.933c3.695-2.134 8.422-.868 10.555 2.828 2.134 3.696.868 8.422-2.828 10.555l-77.828 44.933c-1.216.703-2.545 1.037-3.856 1.037z" fill="#b5dcff"/></g><g><path d="m107.406 350.155c-2.67 0-5.268-1.386-6.699-3.865-2.134-3.696-.868-8.422 2.828-10.555l77.829-44.934c3.695-2.134 8.422-.868 10.555 2.828 2.134 3.696.868 8.422-2.828 10.555l-77.829 44.934c-1.216.702-2.545 1.037-3.856 1.037z" fill="#b5dcff"/></g><path d="m33.213 209.686c2.915 1.683 6.507 1.683 9.422 0l61.862-35.716c2.915-1.683 4.712-4.794 4.711-8.16v-71.433c.001-3.366-1.796-6.477-4.711-8.16l-25.78-14.884c-34.405 33.038-59.586 75.598-71.329 123.443z" fill="#477b9e"/><path d="m42.635 209.686 28.124-16.238c7.684-30.592 20.868-58.997 38.449-84.102v-14.969c0-3.366-1.796-6.477-4.711-8.16l-25.78-14.884c-33.913 32.563-59.44 75.001-71.329 123.443l25.825 14.91c2.915 1.683 6.507 1.683 9.422 0z" fill="#3f6d8e"/><path d="m189.427 48.063 61.862 35.716c2.915 1.683 6.508 1.683 9.422 0l61.862-35.716c2.916-1.683 4.711-4.794 4.711-8.16v-29.834c-22.629-6.548-46.545-10.069-71.284-10.069s-48.655 3.521-71.284 10.069v29.834c0 3.367 1.796 6.477 4.711 8.16z" fill="#477b9e"/><path d="m256 0c-.011 0-.023.001-.034.001-24.127.003-48.246 3.412-71.25 10.068v27.981c30.59-18.892 65.452-31.529 102.807-36.117-10.491-1.288-21.213-1.933-31.523-1.933z" fill="#3f6d8e"/><path d="m407.503 173.97 61.862 35.716c2.915 1.683 6.507 1.683 9.422 0l25.825-14.91c-11.743-47.845-36.924-90.405-71.329-123.443l-25.78 14.884c-2.915 1.683-4.712 4.794-4.712 8.16v71.432c0 3.367 1.797 6.478 4.712 8.161z" fill="#477b9e"/><path d="m450.087 173.97c-2.915-1.683-4.711-4.794-4.711-8.16v-71.433c0-2.729 1.195-5.275 3.195-7.044-4.865-5.551-9.965-10.89-15.287-16.001l-25.78 14.884c-2.915 1.683-4.712 4.793-4.712 8.16v71.432c0 3.366 1.796 6.477 4.711 8.16l61.862 35.716c2.915 1.683 6.507 1.683 9.422 0l16.581-9.573z" fill="#3f6d8e"/><path d="m78.717 440.667 25.78-14.884c2.915-1.683 4.711-4.794 4.711-8.16v-71.433c0-3.366-1.796-6.477-4.711-8.16l-61.862-35.716c-2.915-1.683-6.507-1.683-9.422 0l-25.825 14.91c11.743 47.845 36.923 90.405 71.329 123.443z" fill="#477b9e"/><path d="m78.717 440.667 25.78-14.884c2.915-1.683 4.711-4.794 4.711-8.16v-14.969c-17.58-25.106-30.765-53.51-38.449-84.102l-28.124-16.238c-2.915-1.684-6.507-1.683-9.423 0l-25.825 14.91c11.53 46.972 36.272 89.779 71.33 123.443z" fill="#3f6d8e"/><path d="m478.788 302.314c-2.915-1.683-6.507-1.684-9.422 0l-61.862 35.716c-2.915 1.683-4.711 4.794-4.711 8.16l-.001 71.432c.001 3.366 1.796 6.477 4.712 8.16l25.78 14.884c34.405-33.038 59.586-75.598 71.329-123.443z" fill="#477b9e"/><path d="m445.376 417.623v-71.432c0-3.366 1.796-6.477 4.711-8.16l45.281-26.143-16.581-9.573c-2.915-1.683-6.507-1.684-9.422 0l-61.862 35.716c-2.915 1.683-4.711 4.794-4.711 8.16v71.432c0 3.366 1.796 6.477 4.712 8.16l25.78 14.884c5.322-5.111 10.422-10.45 15.287-16.001-2-1.768-3.195-4.315-3.195-7.043z" fill="#3f6d8e"/><path d="m327.284 501.931v-29.834c0-3.366-1.795-6.477-4.711-8.16l-61.862-35.716c-2.915-1.683-6.507-1.683-9.422 0l-61.862 35.716c-2.915 1.683-4.711 4.794-4.711 8.16v29.834c22.629 6.548 46.545 10.069 71.284 10.069s48.655-3.521 71.284-10.069z" fill="#477b9e"/><path d="m184.716 473.95v27.981c22.415 6.486 46.512 10.069 71.267 10.069h.017c10.404 0 21.145-.659 31.522-1.933-37.354-4.587-72.216-17.225-102.806-36.117z" fill="#3f6d8e"/><path d="m250.613 176.353-61.442 35.474c-3.333 1.925-5.387 5.481-5.387 9.331v70.948c0 3.849 2.054 7.406 5.387 9.331l61.442 35.474c3.333 1.925 7.441 1.925 10.774 0l61.442-35.474c3.334-1.925 5.387-5.481 5.387-9.331v-70.948c0-3.849-2.053-7.406-5.387-9.331l-61.442-35.474c-3.333-1.925-7.44-1.925-10.774 0z" fill="#477b9e"/><path d="m241.506 301.436c-3.334-1.925-5.387-5.482-5.387-9.331v-70.948c0-3.849 2.053-7.406 5.387-9.331l40.662-23.476-20.781-11.998c-3.333-1.925-7.441-1.925-10.774 0l-61.442 35.474c-3.333 1.925-5.387 5.481-5.387 9.331v70.948c0 3.849 2.053 7.406 5.387 9.331l61.442 35.474c3.334 1.925 7.441 1.925 10.774 0l20.781-11.998z" fill="#3f6d8e"/></g></svg>